<?xml version="1.0" encoding="UTF-8"?>
<svg width="44px" height="44px" viewBox="0 0 44 44" version="1.1" xmlns="http://www.w3.org/2000/svg" xmlns:xlink="http://www.w3.org/1999/xlink">
    <title>编组 12</title>
    <defs>
        <filter id="filter-1">
            <feColorMatrix in="SourceGraphic" type="matrix" values="0 0 0 0 1.000000 0 0 0 0 1.000000 0 0 0 0 1.000000 0 0 0 1.000000 0"></feColorMatrix>
        </filter>
    </defs>
    <g id="客户端" stroke="none" stroke-width="1" fill="none" fill-rule="evenodd">
        <g id="首页-语音视频-视频通话" transform="translate(-493.000000, -413.000000)">
            <g id="编组-12" transform="translate(493.000000, 413.000000)">
                <circle id="椭圆形" fill="#ffffff" opacity="0.500000006" cx="22" cy="22" r="22"></circle>
                <!-- <g id="静音" transform="translate(12.692308, 11.000000)" filter="url(#filter-1)">
                    <g fill="#333333" fill-rule="nonzero" id="形状"> -->
                        <path transform="translate(12.692308, 11.000000)" fill="#000000" opacity="0.800000006" d="M13.2286913,11.2313533 L13.2286913,4.36774974 C13.2286913,3.20565884 12.8082128,2.18882868 12.0023242,1.35357818 C11.2314729,0.518325187 10.2503906,0.0825404787 9.0941196,0.0825404787 C7.93784378,0.0825404787 6.99180124,0.518325187 6.185915,1.35357818 C5.38002638,2.18883117 4.95956223,3.20566132 4.95956223,4.36774974 L4.95956223,4.58564185 L12.8783042,12.9381717 C13.1235747,12.3934402 13.2286913,11.8487112 13.2286913,11.2313493 L13.2286913,11.2313533 Z M16.6274227,11.1224073 L16.6274227,9.45190128 C16.6274227,9.23400917 16.5573455,9.01611657 16.3821521,8.87085583 C16.2419975,8.6892789 16.0317649,8.61664829 15.8565713,8.61664829 C15.6463395,8.61664829 15.4711469,8.6892789 15.3309905,8.87085583 C15.1908359,9.05243275 15.08572,9.23401016 15.08572,9.45190128 L15.08572,11.1224073 C15.08572,12.1755538 14.8404494,13.1560676 14.384948,14.0276469 L15.5061841,15.2260542 C16.2419958,14.0276469 16.6274227,12.6839788 16.6274227,11.1224147 L16.6274227,11.1224073 Z M13.5790498,17.0054996 L15.8565618,19.3296839 C16.2069489,19.6928382 16.7325273,19.6928382 17.0829145,19.3296839 C17.4333017,19.0028459 17.4333017,18.4581144 17.1179533,18.0949626 L17.1179533,18.0586471 L1.94622087,2.66094397 C1.59583368,2.29778963 1.07025529,2.29778963 0.719868095,2.66094397 C0.369480903,2.98778188 0.369480903,3.53251338 0.684829376,3.89566524 L0.719868095,3.93198067 L4.95955169,8.25350884 L4.95955169,11.1587485 C4.95955169,12.2845255 5.34497616,13.2650392 6.15086479,14.0639882 C6.95675341,14.8629272 7.90279835,15.2623955 9.05906938,15.2623955 C9.86495801,15.2623955 10.6007697,15.0445034 11.2314647,14.6450336 L12.3877405,15.8434409 C11.4066583,16.5697471 10.2854222,16.9329015 9.02403689,16.9329015 C7.44729692,16.9329015 6.08079022,16.351856 4.95956366,15.2260791 C3.83832752,14.1003021 3.27770945,12.7203226 3.27770945,11.1587584 L3.27770945,9.5245664 C3.27770945,9.3066743 3.20763225,9.12509812 3.03243889,8.94352095 C2.85724554,8.79825946 2.6820517,8.68931341 2.47182082,8.68931341 C2.26158899,8.68931341 2.05135667,8.76194403 1.91120275,8.94352095 C1.7360094,9.08878244 1.6659322,9.30667529 1.6659322,9.5245664 L1.6659322,11.1587584 C1.6659322,13.047158 2.29662723,14.717664 3.55801968,16.1339525 C4.81941214,17.5502509 6.39614013,18.34919 8.21816024,18.5670811 L8.21816024,20.2739035 L4.9245168,20.2739035 C4.71428496,20.2739035 4.50405265,20.3465341 4.36389873,20.528111 C4.18870537,20.6733725 4.11862817,20.8912654 4.11862817,21.1091565 C4.11862817,21.3270486 4.18870537,21.5086248 4.36389873,21.6902019 C4.53909209,21.8717789 4.71428592,21.9444095 4.9245168,21.9444095 L13.1235714,21.9444095 C13.3338032,21.9444095 13.5440355,21.8717789 13.6841894,21.6902019 C13.8593828,21.5449405 13.92946,21.3270476 13.92946,21.1091565 C13.92946,20.8912644 13.8593828,20.7096882 13.6841894,20.528111 C13.5440348,20.3828496 13.3338022,20.2739035 13.1235714,20.2739035 L9.82992791,20.2739035 L9.82992791,18.5670811 C11.3015512,18.349189 12.527904,17.8770888 13.5790704,17.0055194 L13.5790498,17.0054996 Z"></path>
                    <!-- </g>
                </g> -->
            </g>
        </g>
    </g>
</svg>