<?xml version="1.0" encoding="UTF-8"?>
<svg width="44px" height="44px" viewBox="0 0 44 44" version="1.1" xmlns="http://www.w3.org/2000/svg" xmlns:xlink="http://www.w3.org/1999/xlink">
    <title>编组 12</title>
    <defs>
        <filter id="filter-1">
            <feColorMatrix in="SourceGraphic" type="matrix" values="0 0 0 0 1.000000 0 0 0 0 1.000000 0 0 0 0 1.000000 0 0 0 1.000000 0"></feColorMatrix>
        </filter>
    </defs>
    <g id="客户端" stroke="none" stroke-width="1" fill="none" fill-rule="evenodd">
        <g id="首页-语音视频-呼叫" transform="translate(-493.000000, -413.000000)">
            <g id="编组-12" transform="translate(493.000000, 413.000000)">
                <circle id="椭圆形" fill="#000000" opacity="0.400000006" cx="22" cy="22" r="22"></circle>
                <g id="话筒" transform="translate(15.000000, 11.000000)" filter="url(#filter-1)">
                    <g fill="#333333" fill-rule="nonzero" id="路径">
                        <path d="M14.571469,9.97932032 L14.571469,9.77207378 L14.571469,9.7720738 C14.571469,9.31423768 14.2196742,8.94308813 13.7857361,8.94308813 C13.351798,8.94308813 13.0000216,9.31423768 13.0000216,9.7720738 L13.0000216,9.97932033 C13.0000216,13.1792162 10.5328682,15.7822175 7.50002292,15.7822175 C4.46715458,15.7822175 2.00002419,13.1791919 2.00002419,9.97932033 L2.00002419,9.7720738 L2.00002419,9.77207381 C2.00002419,9.3142377 1.64824784,8.94308813 1.21430976,8.94308813 C0.780371687,8.94308813 0.428595329,9.3142377 0.428595329,9.77207381 L0.428595329,9.97932035 C0.428595329,13.8125651 3.18371642,16.977221 6.7143246,17.3912852 L6.7143246,19.9275709 L2.78574093,19.9275709 L2.78574091,19.9275709 C2.35180284,19.9275709 2.00002648,20.2987204 2.00002648,20.7565565 C2.0000265,21.2143927 2.35180284,21.5855422 2.78574091,21.5855422 L12.2143233,21.5855422 L12.2143234,21.5855422 C12.6482614,21.5855422 13.0000378,21.2143927 13.0000378,20.7565565 C13.0000378,20.2987204 12.6482614,19.9275709 12.2143234,19.9275709 L8.28573968,19.9275709 L8.28573968,17.3912852 C11.8163479,16.9772064 14.571469,13.8129537 14.571469,9.97932035 L14.571469,9.97932032 Z"></path>
                        <path d="M7.50001371,14.1242365 C9.77465922,14.1242365 11.6250185,12.1719733 11.6250185,9.77205751 L11.6250185,4.76624315 C11.6250185,2.36632731 9.77465922,0.414064171 7.50001371,0.414064171 C5.22536821,0.414064171 3.37500891,2.36632731 3.37500891,4.76624315 L3.37500891,9.77205751 C3.37500891,12.1719733 5.22536821,14.1242365 7.50001371,14.1242365 Z"></path>
                    </g>
                </g>
            </g>
        </g>
    </g>
</svg>