<?xml version="1.0" encoding="UTF-8"?>
<svg width="30px" height="30px" viewBox="0 0 30 30" version="1.1" xmlns="http://www.w3.org/2000/svg" xmlns:xlink="http://www.w3.org/1999/xlink">
    <title>位图</title>
    <defs>
        <circle id="path-1" cx="15" cy="15" r="15"></circle>
        <filter id="filter-3">
            <feColorMatrix in="SourceGraphic" type="matrix" values="0 0 0 0 1.000000 0 0 0 0 1.000000 0 0 0 0 1.000000 0 0 0 1.000000 0"></feColorMatrix>
        </filter>
    </defs>
    <g id="客户端" stroke="none" stroke-width="1" fill="none" fill-rule="evenodd">
        <g id="首页-联系人" transform="translate(-11.000000, -190.000000)">
            <g id="编组-4备份-3" transform="translate(0.000000, 181.000000)">
                <g id="位图" transform="translate(11.000000, 9.000000)">
                    <mask id="mask-2" fill="white">
                        <use xlink:href="#path-1"></use>
                    </mask>
                    <use id="蒙版" fill="#BDBDBD" xlink:href="#path-1"></use>
                    <g id="编组" mask="url(#mask-2)">
                        <g transform="translate(7.000000, 7.000000)" id="黑名单" filter="url(#filter-3)">
                            <g fill="#000000" fill-rule="nonzero" id="形状">
                                <path d="M6.54143023,9.30706502 C8.7657486,9.30706502 10.5766981,7.31895745 10.5766981,4.8781125 C10.5766981,2.42742544 8.7657486,0.439317862 6.54143023,0.439317862 C4.31711185,0.439317862 2.50616237,2.42742544 2.50616237,4.8781125 C2.50616237,7.31895745 4.31711185,9.30706502 6.54143023,9.30706502 Z M14.4052815,10.4487506 C13.9525441,9.95664473 13.2242275,9.57280217 12.3581212,9.38580196 C12.928964,8.95274882 13.3128065,8.21459007 13.3128065,7.37801015 C13.3128065,6.09853497 12.427016,5.04542849 11.3050147,4.95684943 C11.5510676,5.42927104 11.6986994,5.98042957 11.6986994,6.57095658 C11.6986994,7.54532613 11.3050147,8.4114324 10.6849614,9.00195941 C11.7085415,9.31690714 12.5155951,9.85822356 12.9584903,10.5373296 C11.7085415,10.9211722 10.7932246,12.0825419 10.7932246,13.4604383 C10.7932246,15.1532824 12.1612789,16.5213366 13.8541229,16.5213366 C15.546967,16.5213366 16.9150212,15.1532824 16.9150212,13.4604383 C16.9150212,11.9545944 15.8323884,10.7046456 14.4052815,10.4487506 Z M15.1828087,14.0115968 L12.5254372,14.0115968 C12.2498579,14.0115968 12.0234892,13.7852281 12.0234892,13.5096489 C12.0234892,13.2340696 12.2498579,13.0077009 12.5254372,13.0077009 L15.1828087,13.0077009 C15.458388,13.0077009 15.6847567,13.2340696 15.6847567,13.5096489 C15.6847567,13.7852281 15.458388,14.0115968 15.1828087,14.0115968 Z M10.7932246,10.4093821 C10.232224,10.0747501 9.58264429,9.94680261 8.87401189,9.75980239 C8.87401189,9.75980239 7.9390108,10.2617503 6.53158811,10.2617503 C5.01590214,10.2617503 4.18916433,9.75980239 4.18916433,9.75980239 C1.77784574,10.39954 0.0751595439,11.8561733 0.0751595439,13.7458597 L0.0751595439,14.95644 C0.0751595439,15.8520726 0.793634064,16.5705472 1.68926669,16.5705472 L10.7440141,16.5705472 C9.96648684,15.7831778 9.48422312,14.700545 9.48422312,13.5096489 C9.49406524,12.2892264 9.99601319,11.1967514 10.7932246,10.4093821 Z"></path>
                            </g>
                        </g>
                    </g>
                </g>
            </g>
        </g>
    </g>
</svg>