<?xml version="1.0" encoding="UTF-8"?>
<svg width="23px" height="21px" viewBox="0 0 23 21" version="1.1" xmlns="http://www.w3.org/2000/svg" xmlns:xlink="http://www.w3.org/1999/xlink">
    <title>名片2</title>
    <g id="客户端" stroke="none" stroke-width="1" fill="none" fill-rule="evenodd">
        <g id="回复2" transform="translate(-974.000000, -721.000000)" fill="#FFFFFF" fill-rule="nonzero">
            <g id="编组-2备份-10" transform="translate(915.000000, 706.000000)">
                <g id="名片2" transform="translate(59.000000, 15.000000)">
                    <path d="M20.0994643,0 L2.90053571,0 C1.30728596,0 0,1.27884528 0,2.86731075 L0,18.1326893 C0,19.7076887 1.2936639,21 2.90053571,21 L20.0994643,21 C21.692714,21 23,19.7211547 23,18.1326893 L23,2.85384919 C23,1.27884975 21.7063361,0 20.0994643,0 L20.0994643,0 Z M15.8916449,5.02115919 C17.4576595,5.02115919 18.7377104,6.28654292 18.7377104,7.83462373 C18.7377104,9.38270006 17.4576641,10.6480883 15.8916449,10.6480883 C14.3256302,10.6480883 13.0455793,9.38270453 13.0455793,7.83462373 C13.0455793,6.28654739 14.3256257,5.02115919 15.8916449,5.02115919 L15.8916449,5.02115919 Z M8.66075452,14.8615319 L4.35761234,14.8615319 C3.96270372,14.8615319 3.63588506,14.5384547 3.63588506,14.1480719 C3.63588506,13.7576868 3.96270598,13.4346118 4.35761234,13.4346118 L8.64713698,13.4346118 C9.0420456,13.4346118 9.36886426,13.7576891 9.36886426,14.1480719 C9.36886426,14.5384569 9.05566088,14.8615319 8.66075452,14.8615319 L8.66075452,14.8615319 Z M8.66075452,10.8230661 L4.35761234,10.8230661 C3.96270372,10.8230661 3.63588506,10.4999888 3.63588506,10.109606 C3.63588506,9.71922099 3.96270598,9.39614596 4.35761234,9.39614596 L8.64713698,9.39614596 C9.0420456,9.39614596 9.36886426,9.71922323 9.36886426,10.109606 C9.36886426,10.4999911 9.05566088,10.8230661 8.66075452,10.8230661 L8.66075452,10.8230661 Z M8.66075452,7.0269082 L4.35761234,7.0269082 C3.96270372,7.0269082 3.63588506,6.70383093 3.63588506,6.31344814 C3.63588506,5.9230631 3.96270598,5.59998807 4.35761234,5.59998807 L8.64713698,5.59998807 C9.0420456,5.59998807 9.36886426,5.92306534 9.36886426,6.31344814 C9.36886426,6.70383317 9.05566088,7.0269082 8.66075452,7.0269082 L8.66075452,7.0269082 Z M15.8916449,15.1307406 C12.8821689,15.1307406 11.5476501,14.4576652 11.5476501,14.2018957 C11.5476501,13.8249722 11.6565902,13.4076663 11.8336184,13.0038198 C12.5008755,11.4288203 14.0532726,10.5672787 15.6465292,10.7422789 C15.7418517,10.7557404 15.8235567,10.7557404 15.91888,10.7557404 C15.9869674,10.7557404 16.0686726,10.7557404 16.1367601,10.7422789 C17.7436274,10.6076636 19.3096466,11.4557389 19.9632884,13.0442044 C20.1266987,13.448051 20.2356392,13.8518953 20.2356392,14.2153573 C20.2492568,14.4711268 18.9011227,15.1307406 15.8916444,15.1307406 L15.8916449,15.1307406 Z" id="形状"></path>
                </g>
            </g>
        </g>
    </g>
</svg>