<?xml version="1.0" encoding="UTF-8"?>
<svg width="11px" height="11px" viewBox="0 0 11 11" version="1.1" xmlns="http://www.w3.org/2000/svg" xmlns:xlink="http://www.w3.org/1999/xlink">
    <title>关闭</title>
    <defs>
        <filter id="filter-1">
            <feColorMatrix in="SourceGraphic" type="matrix" values="0 0 0 0 0.000000 0 0 0 0 0.521569 0 0 0 0 1.000000 0 0 0 1.000000 0"></feColorMatrix>
        </filter>
    </defs>
    <g id="客户端" stroke="none" stroke-width="1" fill="none" fill-rule="evenodd">
        <g id="关闭" transform="translate(-998.000000, -846.000000)" filter="url(#filter-1)">
            <g transform="translate(998.000000, 846.000000)">
                <path d="M5.50032649,4.52792062 L9.82617473,0.201855116 L9.82617472,0.201855121 C10.0936324,-0.066580859 10.5280713,-0.0673862757 10.7965227,0.200055779 C10.7971236,0.200654442 10.7977234,0.201254218 10.7983221,0.201855109 L10.7983221,0.201855134 C11.0667734,0.469655581 11.067288,0.904360615 10.7994723,1.17279659 C10.7990893,1.17318044 10.7987059,1.17356383 10.7983221,1.17394677 L6.47202159,5.5 L10.7978698,9.82560113 C11.0664593,10.0941752 11.0682926,10.5272853 10.7978698,10.7976927 L10.7978698,10.7976926 C10.5300541,11.0661286 10.0953242,11.0666432 9.8268729,10.7988428 C9.82648903,10.7984599 9.82610561,10.7980765 9.82572265,10.7976927 L5.50032665,6.47162717 L1.17447841,10.7981449 L1.1744784,10.7981449 C0.907020771,11.0665809 0.472581794,11.0673863 0.204130475,10.7999442 C0.203529554,10.7993455 0.202929743,10.7987457 0.202331042,10.7981449 L0.202330974,10.7981448 C-0.0661203446,10.5303443 -0.0666349119,10.0956393 0.201180869,9.82720333 C0.201563828,9.82681949 0.201947241,9.82643609 0.20233111,9.82605316 L4.52863158,5.5 L0.201866655,1.1743988 L0.201866654,1.1743988 C-0.066584665,0.906956452 -0.0673901277,0.472542297 0.200067221,0.204106317 C0.200665918,0.203505429 0.201265728,0.202905653 0.201866654,0.202306986 L0.2018666,0.20230704 C0.469682349,-0.0661289402 0.904412222,-0.066643478 1.17286354,0.201156757 C1.17324741,0.201539694 1.17363082,0.201923086 1.17401378,0.202306933 L5.50032648,4.52837244 L5.50032649,4.52792062 Z" id="路径" fill="#000000" fill-rule="nonzero"></path>
            </g>
        </g>
    </g>
</svg>