<?xml version="1.0" encoding="UTF-8"?>
<svg width="10px" height="11px" viewBox="0 0 10 11" version="1.1" xmlns="http://www.w3.org/2000/svg" xmlns:xlink="http://www.w3.org/1999/xlink">
    <title>编辑色块</title>
    <g id="客户端更新迭代" stroke="none" stroke-width="1" fill="none" fill-rule="evenodd">
        <g id="首页-用户资料" transform="translate(-885.000000, -99.000000)" fill="#0085FF" fill-rule="nonzero">
            <g id="编组-6" transform="translate(732.000000, 94.000000)">
                <g id="编辑色块" transform="translate(153.000000, 5.000000)">
                    <path d="M8.11377095,3.96143803 L6.26148622,1.82278888 L0.7729947,7.06974578 L0.315079361,9.40177074 L2.58937948,9.24254342 L8.11377095,3.96143803 Z M9.95307059,1.94111741 L8.38722164,0.068111837 L8.38378441,0.0641410811 L8.38378441,0.0641410852 C8.31245964,-0.016489457 8.19179964,-0.0218201969 8.11415286,0.052228805 L6.54868583,1.54840964 L8.40058865,3.68705879 L9.93817593,2.21708494 L9.93817592,2.21708495 C10.0144182,2.14457485 10.0210317,2.02204017 9.95307058,1.94111741 L9.95307059,1.94111741 Z M0,10.2058488 L9.92977381,10.2058488 L9.92977381,11 L0,11 L0,10.2058488 Z" id="形状"></path>
                </g>
            </g>
        </g>
    </g>
</svg>