<?xml version="1.0" encoding="UTF-8"?>
<svg width="24px" height="26px" viewBox="0 0 24 26" version="1.1" xmlns="http://www.w3.org/2000/svg" xmlns:xlink="http://www.w3.org/1999/xlink">
    <title>excel</title>
    <g id="客户端" stroke="none" stroke-width="1" fill="none" fill-rule="evenodd">
        <g id="回复2" transform="translate(-773.000000, -484.000000)" fill-rule="nonzero">
            <g id="excel" transform="translate(773.000000, 484.000000)">
                <path d="M2.55375437,-2.09933081e-15 C1.39875302,-2.09933081e-15 0.45000192,0.934376087 0.45000192,2.07187741 L0.45000192,23.9281528 C0.45000192,25.0656542 1.39875302,26.0000303 2.55375437,26.0000303 L21.4462764,26.0000303 C22.6012777,26.0000303 23.5500288,25.0656542 23.5500288,23.9281528 L23.5500288,8.2468846 L15.7537697,-2.09933081e-15 L2.55375437,-2.09933081e-15 Z" id="路径" fill="#45B058"></path>
                <path d="M8.45251123,21.8969005 C8.37001114,21.8969005 8.28751104,21.8562754 8.24626099,21.8156504 L6.72000922,19.784398 L5.15250739,21.8156504 C5.11125734,21.8562754 5.02875725,21.8969005 4.94625715,21.8969005 C4.78125696,21.8969005 4.65750682,21.7750253 4.65750682,21.6125251 C4.65750682,21.5719001 4.65750682,21.49065 4.69875686,21.450025 L6.30750874,19.3781475 L4.82250701,17.3875202 C4.78125696,17.3468952 4.74000691,17.3062701 4.74000691,17.22502 C4.74000691,17.1031449 4.86375706,16.9406447 5.02875725,16.9406447 C5.15250739,16.9406447 5.23500749,16.9812698 5.27625754,17.0625199 L6.72000922,18.931272 L8.12251085,17.0625199 C8.1637609,16.9812698 8.24626099,16.9406447 8.32876109,16.9406447 C8.49376128,16.9406447 8.65876147,17.0625199 8.65876147,17.22502 C8.65876147,17.3062701 8.61751142,17.3468952 8.61751142,17.3875202 L7.09125965,19.3375225 L8.70001152,21.450025 C8.74126157,21.49065 8.78251162,21.5719001 8.78251162,21.6125251 C8.78251162,21.7750253 8.61751142,21.8969005 8.45251123,21.8969005 L8.45251123,21.8969005 Z M12.577516,21.8562754 L10.3500134,21.8562754 C10.1025132,21.8562754 9.89626291,21.6531502 9.89626291,21.4093999 L9.89626291,17.22502 C9.89626291,17.0625199 10.0200131,16.9406447 10.2262633,16.9406447 C10.3912635,16.9406447 10.5150136,17.0625199 10.5150136,17.22502 L10.5150136,21.3281498 L12.577516,21.3281498 C12.7425162,21.3281498 12.8662664,21.450025 12.8662664,21.5719001 C12.8662664,21.7344003 12.7425162,21.8562754 12.577516,21.8562754 Z M15.4650194,21.9375255 C14.7225185,21.9375255 14.1450179,21.6937752 13.7325174,21.3281498 C13.6500173,21.2875248 13.6500173,21.2062747 13.6500173,21.1250246 C13.6500173,20.9625244 13.7325174,20.8000242 13.9387676,20.8000242 C13.9800177,20.8000242 14.0625178,20.8406493 14.1037678,20.8812743 C14.4337682,21.1656496 14.9287688,21.4093999 15.5062694,21.4093999 C16.3725204,21.4093999 16.6612708,20.9218993 16.6612708,20.5562739 C16.6612708,19.2968975 13.7325174,19.9875233 13.7325174,18.2812713 C13.7325174,17.4687703 14.4337682,16.9000197 15.4237693,16.9000197 C16.0425201,16.9000197 16.6200207,17.1031449 16.9912712,17.4281453 C17.0737713,17.4687703 17.1150213,17.5500204 17.1150213,17.6312705 C17.1150213,17.7937707 16.9912712,17.9562709 16.826271,17.9562709 C16.7850209,17.9562709 16.7025208,17.9156458 16.6612708,17.8750208 C16.2900204,17.5906455 15.8362698,17.4687703 15.3825193,17.4687703 C14.7637686,17.4687703 14.3512681,17.7531457 14.3512681,18.2406462 C14.3512681,19.3375225 17.2800215,18.6875217 17.2800215,20.5156489 C17.2800215,21.2062747 16.7850209,21.9375255 15.4650194,21.9375255 L15.4650194,21.9375255 Z" id="形状" fill="#FFFFFF"></path>
                <path d="M23.5500288,8.28750964 L23.5500288,8.69376012 L18.2700227,8.69376012 C18.2700227,8.69376012 15.6300196,8.1656345 15.7125197,5.9312569 C15.7125197,5.9312569 15.7950198,8.28750964 18.1875226,8.28750964 L23.5500288,8.28750964 Z" id="路径" fill="#349C42"></path>
                <path d="M15.7125197,0 L15.7125197,5.9312569 C15.7125197,6.58125766 16.2075203,8.28750964 18.2700227,8.28750964 L23.5500288,8.28750964 L15.7125197,0 Z" id="路径" fill="#FFFFFF" opacity="0.5"></path>
            </g>
        </g>
    </g>
</svg>