<?xml version="1.0" encoding="UTF-8"?>
<svg width="14px" height="14px" viewBox="0 0 14 14" version="1.1" xmlns="http://www.w3.org/2000/svg" xmlns:xlink="http://www.w3.org/1999/xlink">
    <title>编组 11</title>
    <g id="客户端" stroke="none" stroke-width="1" fill="none" fill-rule="evenodd">
        <g id="阅后即焚" transform="translate(-451.000000, -129.000000)">
            <g id="编组-11" transform="translate(451.000000, 129.000000)">
                <circle id="椭圆形" stroke="#FFFFFF" stroke-width="0.5" fill="#B3B3B3" cx="7" cy="7" r="6.75"></circle>
                <g id="编组" transform="translate(3.315789, 2.947368)" fill-rule="nonzero">
                    <g id="火">
                        <path d="M7.34789587,4.68813426 L7.33342838,4.56944768 C7.24372975,3.85990616 6.52324788,3.17100444 6.50877957,2.30407649 C6.20206832,2.74786218 6.14998526,3.07554196 6.09211508,3.55029279 C5.25299899,2.53371403 4.3994156,1.18428964 4.66850802,0 C4.66850802,0 2.94687803,0.399923617 2.13090329,2.68594096 C1.74317339,2.34536063 1.81840493,1.68742225 2.04120466,1.30555778 C1.68819748,1.51197032 0.362970439,2.66529572 0.0938780145,4.08696032 C0.00128592867,4.44044121 -0.0247553984,4.8145628 0.0244338993,5.19642455 C0.255914622,6.99736843 2.07882583,8.29002747 4.09848893,8.0836113 C5.58864431,7.93138255 6.72289537,7.05413379 7.17717767,5.96530573 C7.34789414,5.55764196 7.40287127,5.11901577 7.34789414,4.68813063 L7.34789587,4.68813426 Z" id="形状" fill="#FFFFFF"></path>
                        <path d="M4.24606476,7.05671353 C4.04641269,7.12379752 3.8207201,7.13927837 3.59213344,7.09541584 C3.34329238,7.05929374 3.1233859,6.9638278 2.96424366,6.82449961 C2.92952165,6.80127824 2.89769311,6.77547677 2.862971,6.7496752 C2.862971,6.7496752 1.96309167,6.10721712 2.28427021,5.10611956 C2.28427021,5.10611956 2.34503374,5.34349362 2.60834281,5.48540156 C2.65753242,5.08547795 2.8919066,4.24693176 3.95382528,3.74637527 C3.95382528,3.74637527 3.5226935,4.2314442 3.95382528,4.69587514 C4.19687922,4.53074583 4.50648454,4.38883698 4.90000055,4.31401248 C4.90000055,4.31401248 4.30683247,4.67523352 4.64826541,5.21190558 C4.67430694,5.25060789 4.69745502,5.28672999 4.71770953,5.322852 C4.8045146,5.41057715 4.888426,5.51120268 4.98391195,5.65053087 C5.05914309,5.73825602 5.11411961,5.83888154 5.14305419,5.94982887 L5.14305419,5.95498918 C5.15462822,5.99627159 5.16041524,6.03755401 5.16041524,6.07625641 C5.1777763,6.50198114 4.80162094,6.90964582 4.24606862,7.05671507 L4.24606476,7.05671353 Z" id="路径" fill="#B3B3B3"></path>
                    </g>
                </g>
            </g>
        </g>
    </g>
</svg>