<?xml version="1.0" encoding="UTF-8"?>
<svg width="30px" height="30px" viewBox="0 0 30 30" version="1.1" xmlns="http://www.w3.org/2000/svg" xmlns:xlink="http://www.w3.org/1999/xlink">
    <title>位图</title>
    <defs>
        <linearGradient x1="84.4838351%" y1="9.41929855%" x2="17.2016917%" y2="84.8913815%" id="linearGradient-1">
            <stop stop-color="#71E2FF" offset="0%"></stop>
            <stop stop-color="#13B9FF" offset="100%"></stop>
        </linearGradient>
        <circle id="path-2" cx="15" cy="15" r="15"></circle>
        <filter id="filter-4">
            <feColorMatrix in="SourceGraphic" type="matrix" values="0 0 0 0 1.000000 0 0 0 0 1.000000 0 0 0 0 1.000000 0 0 0 1.000000 0"></feColorMatrix>
        </filter>
    </defs>
    <g id="客户端" stroke="none" stroke-width="1" fill="none" fill-rule="evenodd">
        <g id="首页-联系人" transform="translate(-11.000000, -142.000000)">
            <g id="编组-4备份-2" transform="translate(0.000000, 133.000000)">
                <g id="位图" transform="translate(11.000000, 9.000000)">
                    <mask id="mask-3" fill="white">
                        <use xlink:href="#path-2"></use>
                    </mask>
                    <use id="蒙版" fill="url(#linearGradient-1)" xlink:href="#path-2"></use>
                    <g id="编组" mask="url(#mask-3)">
                        <g transform="translate(7.000000, 7.000000)" id="群" filter="url(#filter-4)">
                            <g fill="#000000" fill-rule="nonzero" id="形状">
                                <path d="M7.42987292,15.7267565 C11.2538813,15.7267565 14.084451,15.0335265 14.3620294,14.0137337 C14.4642952,13.5592192 14.8368347,12.7265794 13.8488745,11.1987998 C13.1421452,10.1198055 10.8776894,9.37883243 9.62310789,8.66077604 C9.42405492,8.54619257 9.37292205,8.27310197 9.51536362,8.0878587 C10.3152278,7.04323943 10.8886465,5.51164043 10.810121,3.8921941 C10.7242908,1.90990012 9.30717979,0.29236352 7.44630848,0.273266276 L7.38969709,0.273266276 C5.52882578,0.29236352 4.11171476,1.90990012 4.02588458,3.8921941 C3.94918527,5.51355015 4.52260391,7.04323943 5.32064195,8.0878587 C5.46308352,8.27310197 5.41195065,8.54810229 5.21289768,8.66077604 C3.95648997,9.37883243 1.69386038,10.1198055 0.987131044,11.1987998 C-0.00082909,12.7265794 0.371710406,13.5573095 0.47397615,14.0137337 C0.753380772,15.0335265 3.58395047,15.7267565 7.40613265,15.7267565 M13.1366667,7.45001074 C13.1421452,7.4786566 13.1567546,7.50539275 13.182321,7.52067054 C13.9474879,8.02865724 15.7133982,8.51945643 16.2320316,9.29480455 C16.9844153,10.4119934 16.5625691,11.1777929 16.5735261,11.1777929 C16.5205671,11.4031403 16.1936819,11.6074809 15.66957,11.7774463 C15.4723432,11.8404672 15.260507,11.7430713 15.1728507,11.5482794 C15.0413661,11.2541818 14.882489,10.9734523 14.7016978,10.7080006 C14.0406228,9.71685365 12.636295,9.08664459 11.2794477,8.48126194 C11.1753558,8.43542855 11.0712639,8.38768544 10.9708243,8.34185205 C10.7389002,8.23872693 10.6494177,7.94462937 10.779076,7.71928188 C11.4273678,6.58299584 11.796255,5.32448743 11.7305127,3.98768032 C11.7159033,3.6191035 11.6410302,3.17604743 11.5369382,2.7750053 C11.4657175,2.5019147 11.6574657,2.22691438 11.9277395,2.22309493 L11.9551321,2.22309493 C13.2024089,2.23455328 14.1392362,3.282992 14.1958476,4.57778517 C14.252459,5.71216149 13.7758276,6.71094738 13.1604069,7.37171204 C13.140319,7.39080928 13.1311881,7.41945515 13.1366667,7.45001074 L13.1366667,7.45001074 Z"></path>
                            </g>
                        </g>
                    </g>
                </g>
            </g>
        </g>
    </g>
</svg>