<?xml version="1.0" encoding="UTF-8"?>
<svg width="24px" height="26px" viewBox="0 0 24 26" version="1.1" xmlns="http://www.w3.org/2000/svg" xmlns:xlink="http://www.w3.org/1999/xlink">
    <title>pdf</title>
    <g id="客户端" stroke="none" stroke-width="1" fill="none" fill-rule="evenodd">
        <g id="回复2" transform="translate(-851.000000, -484.000000)" fill-rule="nonzero">
            <g id="pdf" transform="translate(851.000000, 484.000000)">
                <path d="M2.55375437,-2.09933081e-15 C1.39875302,-2.09933081e-15 0.45000192,0.934376087 0.45000192,2.07187741 L0.45000192,23.9281528 C0.45000192,25.0656542 1.39875302,26.0000303 2.55375437,26.0000303 L21.4462764,26.0000303 C22.6012777,26.0000303 23.5500288,25.0656542 23.5500288,23.9281528 L23.5500288,8.2468846 L15.7537697,-2.09933081e-15 L2.55375437,-2.09933081e-15 Z" id="路径" fill="#8C181A"></path>
                <path d="M23.5500288,8.28750964 L23.5500288,8.69376012 L18.2700227,8.69376012 C18.2700227,8.69376012 15.6712696,8.1656345 15.7537697,5.97188195 C15.7537697,5.97188195 15.8362698,8.28750964 18.2287726,8.28750964 L23.5500288,8.28750964 Z" id="路径" fill="#6B0D12"></path>
                <path d="M15.7537697,0 L15.7537697,5.9312569 C15.7537697,6.62188271 16.2075203,8.28750964 18.2700227,8.28750964 L23.5500288,8.28750964 L15.7537697,0 Z" id="路径" fill="#FFFFFF"></path>
                <path d="M6.59625907,19.9062732 L5.23500749,19.9062732 L5.23500749,21.5719001 C5.23500749,21.7344003 5.11125734,21.8562754 4.9050071,21.8562754 C4.74000691,21.8562754 4.61625677,21.7344003 4.61625677,21.5719001 L4.61625677,17.4281453 C4.61625677,17.184395 4.82250701,16.9812698 5.0700073,16.9812698 L6.59625907,16.9812698 C7.58626022,16.9812698 8.1637609,17.6718956 8.1637609,18.4437715 C8.1637609,19.2562724 7.58626022,19.9062732 6.59625907,19.9062732 L6.59625907,19.9062732 Z M6.55500902,17.5093954 L5.23500749,17.5093954 L5.23500749,19.3781475 L6.55500902,19.3781475 C7.1325097,19.3781475 7.54501018,19.0125221 7.54501018,18.4437715 C7.54501018,17.8750208 7.1325097,17.5093954 6.55500902,17.5093954 L6.55500902,17.5093954 Z M10.845014,21.8562754 L9.60751258,21.8562754 C9.36001229,21.8562754 9.15376205,21.6531502 9.15376205,21.4093999 L9.15376205,17.4281453 C9.15376205,17.184395 9.36001229,16.9812698 9.60751258,16.9812698 L10.845014,16.9812698 C12.3712658,16.9812698 13.402517,18.037521 13.402517,19.4187726 C13.402517,20.8000242 12.4125158,21.8562754 10.845014,21.8562754 L10.845014,21.8562754 Z M10.845014,17.5093954 L9.77251277,17.5093954 L9.77251277,21.2875248 L10.845014,21.2875248 C12.0412654,21.2875248 12.7425162,20.4343988 12.7425162,19.3781475 C12.7837663,18.3625214 12.0825155,17.5093954 10.845014,17.5093954 L10.845014,17.5093954 Z M17.5687718,17.5093954 L15.1762691,17.5093954 L15.1762691,19.0937722 L17.5275218,19.0937722 C17.692522,19.0937722 17.7750221,19.2156474 17.7750221,19.3781475 C17.7750221,19.5406477 17.6512719,19.6218978 17.5275218,19.6218978 L15.1762691,19.6218978 L15.1762691,21.5719001 C15.1762691,21.7344003 15.0525189,21.8562754 14.8462687,21.8562754 C14.6812685,21.8562754 14.5575183,21.7344003 14.5575183,21.5719001 L14.5575183,17.4281453 C14.5575183,17.184395 14.7637686,16.9812698 15.0112689,16.9812698 L17.5687718,16.9812698 C17.733772,16.9812698 17.8162721,17.1031449 17.8162721,17.2656451 C17.8575222,17.3875202 17.733772,17.5093954 17.5687718,17.5093954 L17.5687718,17.5093954 Z" id="形状" fill="#FFFFFF"></path>
            </g>
        </g>
    </g>
</svg>