<?xml version="1.0" encoding="UTF-8"?>
<svg width="24px" height="26px" viewBox="0 0 24 26" version="1.1" xmlns="http://www.w3.org/2000/svg" xmlns:xlink="http://www.w3.org/1999/xlink">
    <title>编组 2备份 9</title>
    <g id="客户端" stroke="none" stroke-width="1" fill="none" fill-rule="evenodd">
        <g id="回复2" transform="translate(-692.000000, -484.000000)" fill-rule="nonzero">
            <g id="ppt" transform="translate(692.000000, 484.000000)">
                <path d="M2.55375437,-2.09933081e-15 C1.39875302,-2.09933081e-15 0.45000192,0.934376087 0.45000192,2.07187741 L0.45000192,23.9281528 C0.45000192,25.0656542 1.39875302,26.0000303 2.55375437,26.0000303 L21.4462764,26.0000303 C22.6012777,26.0000303 23.5500288,25.0656542 23.5500288,23.9281528 L23.5500288,8.2468846 L15.7537697,-2.09933081e-15 L2.55375437,-2.09933081e-15 Z" id="路径" fill="#E34221"></path>
                <path d="M23.5500288,8.28750964 L23.5500288,8.69376012 L18.2700227,8.69376012 C18.2700227,8.69376012 15.6712696,8.1656345 15.7125197,5.9312569 C15.7125197,5.9312569 15.8362698,8.28750964 18.2287726,8.28750964 L23.5500288,8.28750964 Z" id="路径" fill="#DC3119"></path>
                <path d="M15.7537697,0 L15.7537697,5.9312569 C15.7537697,6.58125766 16.2075203,8.28750964 18.2700227,8.28750964 L23.5500288,8.28750964 L15.7537697,0 Z" id="路径" fill="#FFFFFF"></path>
                <path d="M6.63750912,19.9062732 L5.23500749,19.9062732 L5.23500749,21.6125251 C5.23500749,21.7750253 5.11125734,21.8969005 4.94625715,21.8969005 C4.78125696,21.8969005 4.61625677,21.7750253 4.61625677,21.6125251 L4.61625677,17.4281453 C4.61625677,17.184395 4.82250701,16.9812698 5.0700073,16.9812698 L6.63750912,16.9812698 C7.62751027,16.9812698 8.1637609,17.6312705 8.1637609,18.4437715 C8.1637609,19.2562724 7.58626022,19.9062732 6.63750912,19.9062732 L6.63750912,19.9062732 Z M6.55500902,17.5093954 L5.23500749,17.5093954 L5.23500749,19.3781475 L6.55500902,19.3781475 C7.1325097,19.3781475 7.54501018,18.9718971 7.54501018,18.4437715 C7.54501018,17.8750208 7.1325097,17.5093954 6.55500902,17.5093954 L6.55500902,17.5093954 Z M11.1750144,19.9062732 L9.77251277,19.9062732 L9.77251277,21.6125251 C9.77251277,21.7750253 9.64876262,21.8969005 9.48376243,21.8969005 C9.31876224,21.8969005 9.1950121,21.7750253 9.1950121,21.6125251 L9.1950121,17.4281453 C9.1950121,17.184395 9.36001229,16.9812698 9.60751258,16.9812698 L11.1750144,16.9812698 C12.1650156,16.9812698 12.7012662,17.6312705 12.7012662,18.4437715 C12.7012662,19.2562724 12.1650156,19.9062732 11.1750144,19.9062732 L11.1750144,19.9062732 Z M11.0925143,17.5093954 L9.81376282,17.5093954 L9.81376282,19.3781475 L11.0925143,19.3781475 C11.670015,19.3781475 12.0825155,18.9718971 12.0825155,18.4437715 C12.0825155,17.8750208 11.670015,17.5093954 11.0925143,17.5093954 L11.0925143,17.5093954 Z M16.9087711,17.5093954 L15.5475195,17.5093954 L15.5475195,21.6125251 C15.5475195,21.7750253 15.4237693,21.8969005 15.2587692,21.8969005 C15.093769,21.8969005 14.9287688,21.7750253 14.9287688,21.6125251 L14.9287688,17.5093954 L13.6087672,17.5093954 C13.443767,17.5093954 13.3200169,17.3875202 13.3200169,17.22502 C13.3200169,17.1031449 13.443767,16.9812698 13.6087672,16.9812698 L16.9087711,16.9812698 C17.0737713,16.9812698 17.1975214,17.1031449 17.1975214,17.2656451 C17.1975214,17.3875202 17.0737713,17.5093954 16.9087711,17.5093954 Z" id="形状" fill="#FFFFFF"></path>
            </g>
        </g>
    </g>
</svg>