<?xml version="1.0" encoding="UTF-8"?>
<svg width="21px" height="19px" viewBox="0 0 21 19" version="1.1" xmlns="http://www.w3.org/2000/svg" xmlns:xlink="http://www.w3.org/1999/xlink">
    <title>返回</title>
    <g id="客户端" stroke="none" stroke-width="1" fill="none" fill-rule="evenodd" stroke-linejoin="round">
        <g id="回复2" transform="translate(-321.000000, -842.000000)" fill-rule="nonzero" stroke="#0085FF" stroke-width="1.5">
            <g id="返回" transform="translate(322.000000, 843.000000)">
                <path d="M9.88145053,4.85439945 C14.63069,4.85439945 19,10.9190552 19,16.5713277 C19,16.9109495 18.6794269,17.0807587 18.3588523,16.5713277 L18.3588522,16.5713275 C17.0193308,13.658531 14.1477445,11.8037696 10.997527,11.8166358 L9.8814553,11.8166358 L9.8814553,15.5282172 C9.8814553,16.74115 9.08595668,17.396127 8.27858679,16.74115 L0.608559814,9.92447604 L0.608559723,9.92447596 C-0.125861578,9.27638194 -0.20694211,8.14277811 0.427459878,7.39251964 C0.483340979,7.32643241 0.543868207,7.26459917 0.608559723,7.20751166 L8.31420863,0.415092613 C9.12158015,-0.433960183 9.76272788,0.0754708309 9.76272788,1.4339563 C9.72710854,1.77357808 9.72710854,3.13206521 9.88145895,4.85442903 L9.88145053,4.85439945 Z" id="路径"></path>
            </g>
        </g>
    </g>
</svg>