<?xml version="1.0" encoding="UTF-8"?>
<svg width="26px" height="26px" viewBox="0 0 26 26" version="1.1" xmlns="http://www.w3.org/2000/svg" xmlns:xlink="http://www.w3.org/1999/xlink">
    <title>scv</title>
    <g id="客户端" stroke="none" stroke-width="1" fill="none" fill-rule="evenodd">
        <g id="回复2" transform="translate(-810.000000, -484.000000)" fill="#733781" fill-rule="nonzero">
            <g id="scv" transform="translate(810.000000, 484.000000)">
                <path d="M23.8333405,26 L5.41666967,26 L5.41666957,26 C4.22005176,26 3.25000227,25.0299521 3.25000227,23.8333363 C3.25000227,23.8333363 3.25000227,23.8333363 3.25000227,23.8333363 L3.25000227,21.1249971 L1.08333497,21.1249971 L1.08333492,21.1249971 C0.485027285,21.124997 0,20.6399731 0,20.0416639 L0,10.8333309 L0,10.8333311 C0,10.2350244 0.485024746,9.74999795 1.08333492,9.74999795 L3.25000222,9.74999795 L3.25000222,2.16666342 L3.25000222,2.16666375 C3.25000204,0.970047899 4.22005171,0 5.41666952,0 L18.8738369,0 L26,7.17274313 L26,23.833319 L26,23.833319 C26,25.0299348 25.0299505,26 23.8333327,26 C23.8333327,26 23.8333327,26 23.8333327,26 L23.8333405,26 Z M4.87497714,21.1250047 L4.87497714,23.8333439 L4.87497714,23.8333438 C4.87497714,24.1324984 5.11749833,24.3750091 5.41665189,24.3750091 C5.41665189,24.3750091 5.41665189,24.3750091 5.41665189,24.3750091 L23.8333227,24.3750091 L23.8333227,24.3750091 C24.1324777,24.3750091 24.3749889,24.1324969 24.3749889,23.8333438 C24.3749889,23.8333438 24.3749889,23.8333438 24.3749889,23.8333438 L24.3749889,7.8412009 L24.1182387,7.58336697 L20.9083283,7.58336697 L20.9083281,7.58336697 C19.5322188,7.58336691 18.4166606,6.46781062 18.4166606,5.09170354 C18.4166606,5.09170354 18.4166606,5.09170348 18.4166606,5.09170348 L18.4166606,1.8417066 L18.1999939,1.62504022 L5.41664335,1.62504022 L5.41664333,1.62504022 C5.11748824,1.62504022 4.87497714,1.86755245 4.87497714,2.16670552 C4.87497714,2.16670552 4.87497714,2.16670552 4.87497714,2.16670552 L4.87497714,9.75004006 L21.1249882,9.75004006 L21.1249882,9.75004006 C21.7232958,9.75004003 22.2083231,10.235064 22.2083231,10.8333732 L22.2083231,20.0417062 L22.2083231,20.0417062 C22.2083231,20.6400128 21.7232984,21.1250402 21.1249882,21.1250402 L4.87497714,21.1250047 Z M8.9678303,17.0473504 L8.13907973,18.0418494 L8.13907973,18.0418497 C8.85033027,18.7154953 9.79195493,19.0921445 10.7715818,19.0948486 L10.7715817,19.0948486 C11.4790844,19.1231201 12.1725434,18.8919668 12.7215831,18.4448493 L12.7215832,18.4448492 C13.1681487,18.0605015 13.4242387,17.500037 13.4224995,16.9108507 L13.4224995,16.9108482 C13.4476802,16.0005393 12.8471476,15.1910311 11.9686618,14.9511026 L11.0239953,14.551353 L10.9622453,14.5275197 C10.3642449,14.2913533 9.89191039,14.1050201 9.89191039,13.6056047 C9.89191039,13.136521 10.2927448,12.8472713 10.9362453,12.8472713 L10.9362454,12.8472713 C11.5019463,12.8505538 12.0465731,13.0623098 12.4659122,13.4420207 L13.1982469,12.5352716 L13.1982469,12.5352715 C12.5978445,11.9380338 11.7841811,11.6046933 10.9373295,11.6090224 L10.9373294,11.6090224 C9.70744226,11.4683823 8.59641123,12.3513877 8.45577246,13.5812729 C8.4514282,13.619263 8.44805678,13.6573581 8.44566155,13.6955207 L8.44566157,13.6955215 C8.46813707,14.5884581 9.05593836,15.368272 9.90816257,15.6357696 L10.8734132,16.0452692 L10.9427467,16.0745192 C11.5515813,16.3334348 11.9534974,16.507853 11.9534974,17.0202683 C11.9534974,17.5326836 11.5342471,17.8490175 10.8040808,17.8490175 L10.8040806,17.8490175 C10.1160856,17.8138114 9.46446782,17.5292102 8.97107939,17.0484341 L8.9678303,17.0473504 Z M5.50116972,11.6068556 C3.52625255,11.6068556 2.14282563,13.1592699 2.14282563,15.3811938 L2.14282562,15.381194 C2.09557846,16.3922604 2.44326293,17.3820952 3.11241046,18.1415332 L3.11241048,18.1415332 C3.72642223,18.7682443 4.5719687,19.1135971 5.44916208,19.0959481 L5.44916205,19.0959481 C6.33805543,19.1109353 7.18524214,18.7196518 7.75016362,18.0331991 L6.99182892,17.1362 L6.99182893,17.1362 C6.62014039,17.5771687 6.07666892,17.8368663 5.50007791,17.8490335 C4.33874293,17.8490335 3.61832662,16.8848686 3.61832662,15.3335359 C3.61832662,13.8461215 4.38641132,12.8418724 5.52932793,12.8418724 L5.52932795,12.8418724 C6.03602107,12.8521931 6.51606925,13.0708591 6.85641304,13.4463719 L7.61474773,12.5298727 L7.61474778,12.5298728 C7.06651557,11.9480624 6.30487248,11.6147701 5.50549634,11.6068556 L5.50116972,11.6068556 Z M13.7594254,11.7433555 L15.9629269,18.9583485 L17.678928,18.9583485 L19.8910954,11.7433555 L18.4285944,11.7433555 L17.4925937,15.2533521 C17.3842602,15.6563517 17.275927,16.0474355 17.1838435,16.4255168 L17.1838435,16.4417668 C17.0906769,16.8090164 16.9931768,17.1881819 16.8837591,17.5835999 L16.8350091,17.5835999 C16.7125924,17.1600161 16.6129255,16.7537665 16.5165089,16.361601 L16.5165089,16.3464344 L16.516509,16.346435 C16.4280412,15.9810592 16.3341418,15.6170189 16.234843,15.254436 L15.2793424,11.7444394 L13.7626755,11.7444394 L13.7594254,11.7433555 Z" id="形状"></path>
            </g>
        </g>
    </g>
</svg>