<?xml version="1.0" encoding="UTF-8"?>
<svg width="21px" height="21px" viewBox="0 0 21 21" version="1.1" xmlns="http://www.w3.org/2000/svg" xmlns:xlink="http://www.w3.org/1999/xlink">
    <title>xhdpi/发送</title>
    <defs>
        <linearGradient x1="3.24650942%" y1="13.1409153%" x2="98.4534677%" y2="93.6980511%" id="linearGradient-1">
            <stop stop-color="#00BBFF" offset="0%"></stop>
            <stop stop-color="#0085FF" offset="100%"></stop>
        </linearGradient>
    </defs>
    <g id="客户端" stroke="none" stroke-width="1" fill="none" fill-rule="evenodd">
        <g id="首页-无聊天" transform="translate(-990.000000, -894.000000)" fill="url(#linearGradient-1)">
            <g id="发送" transform="translate(990.000000, 894.000000)">
                <path d="M10.5,0 C16.3029932,0 21,4.69700684 21,10.5 C21,16.3029932 16.3029932,21 10.5,21 C4.69700684,21 0,16.3029932 0,10.5 C0,4.69700684 4.69700684,0 10.5,0 Z M14.3604932,15.4816758 L16.2971689,6.76782422 C16.4686758,6.00132422 16.0066758,5.69916211 15.4805068,5.88816211 L4.095,10.0741758 C3.318,10.3635 3.33200684,10.7788242 3.96432422,10.9666758 L6.87633105,11.8346689 L13.6359932,7.77350684 C13.9509932,7.57166895 14.2426758,7.686 14.0046621,7.88666895 L8.5365,12.6011689 L8.3265,15.4688379 C8.62983105,15.4688379 8.76167578,15.3428379 8.91917578,15.1911621 L10.3425,13.8845068 L13.2941689,15.9588311 C13.8343447,16.2470068 14.2158311,16.0965 14.3604932,15.4805068 L14.3604932,15.4816758 Z" id="形状"></path>
            </g>
        </g>
    </g>
</svg>