<?xml version="1.0" encoding="UTF-8"?>
<svg width="44px" height="44px" viewBox="0 0 44 44" version="1.1" xmlns="http://www.w3.org/2000/svg" xmlns:xlink="http://www.w3.org/1999/xlink">
    <title>编组 11</title>
    <defs>
        <filter id="filter-1">
            <feColorMatrix in="SourceGraphic" type="matrix" values="0 0 0 0 1.000000 0 0 0 0 1.000000 0 0 0 0 1.000000 0 0 0 1.000000 0"></feColorMatrix>
        </filter>
    </defs>
    <g id="客户端" stroke="none" stroke-width="1" fill="none" fill-rule="evenodd">
        <g id="首页-语音视频-视频通话" transform="translate(-411.000000, -413.000000)">
            <g id="编组-11" transform="translate(411.000000, 413.000000)">
                <circle id="椭圆形" fill="#000000" opacity="0.400000006" cx="22" cy="22" r="22"></circle>
                <g filter="url(#filter-1)" id="摄像头">
                    <g transform="translate(12.692308, 11.000000)" fill="#000000" fill-rule="nonzero" id="形状">
                        <path d="M13.8088999,18.4416015 L13.8088998,18.4416015 C12.3665091,19.1469795 10.7813422,19.5141993 9.17466309,19.5151662 C7.56107858,19.5151662 6.03560791,19.1441387 4.66653068,18.5019758 L3.60090405,19.6073742 C2.75280844,20.4888389 3.37896734,21.9542961 4.60430029,21.9542961 L14.0699327,21.9542961 C15.2743386,21.9542961 15.8762662,20.50202 15.0259678,19.6545845 L13.8088955,18.4416015 L13.8088999,18.4416015 Z M9.17466318,4.87878296 C11.4248787,4.87878296 13.2543378,6.70318426 13.2543378,8.94416386 C13.2543378,11.185152 11.4248744,13.0101022 9.17466318,13.0101022 C6.92444765,13.0101022 5.09554788,11.185152 5.09554788,8.94416386 C5.09554788,6.70317568 6.92446056,4.87931896 9.17466318,4.87931896 L9.17466318,4.87878296 Z M9.17466318,0 C4.21935739,0 0.200261034,4.00391318 0.200261034,8.9441853 C0.200261034,13.8849934 4.21935739,17.8889066 9.17466318,17.8889066 C14.1321632,17.8889066 18.1496031,13.8849934 18.1496031,8.9441853 C18.1496031,4.00391318 14.1321632,0 9.17466318,0 Z"></path>
                    </g>
                </g>
                <rect id="矩形" fill="#FFFFFF" transform="translate(22.132064, 20.484089) rotate(-49.000000) translate(-22.132064, -20.484089) " x="21.1320644" y="6.48408854" width="2" height="28" rx="1"></rect>
            </g>
        </g>
    </g>
</svg>