<?xml version="1.0" encoding="UTF-8"?>
<svg width="20px" height="16px" viewBox="0 0 20 16" version="1.1" xmlns="http://www.w3.org/2000/svg" xmlns:xlink="http://www.w3.org/1999/xlink">
    <title>video3@2x</title>
    <defs>
        <filter id="filter-1">
            <feColorMatrix in="SourceGraphic" type="matrix" values="0 0 0 0 0.000000 0 0 0 0 0.521569 0 0 0 0 1.000000 0 0 0 1.000000 0"></feColorMatrix>
        </filter>
        <filter id="filter-2">
            <feColorMatrix in="SourceGraphic" type="matrix" values="0 0 0 0 1.000000 0 0 0 0 1.000000 0 0 0 0 1.000000 0 0 0 1.000000 0"></feColorMatrix>
        </filter>
    </defs>
    <g id="客户端" stroke="none" stroke-width="1" fill="none" fill-rule="evenodd">
        <g id="首页-语音视频-通话中" transform="translate(-980.000000, -368.000000)">
            <g id="编组-39" transform="translate(949.000000, 235.000000)">
                <g id="编组-38备份" transform="translate(0.000000, 107.000000)">
                    <g id="video3" transform="translate(31.000000, 26.000000)" filter="url(#filter-1)">
                        <g filter="url(#filter-2)" id="“视频（实心）”">
                            <g>
                                <path d="M19.2097332,1.64345565 L14.5440339,4.43340075 L14.5440339,0.940768564 C14.5440339,0.422999133 14.1355062,0 13.6354504,0 L0.908583547,0 C0.408527737,0 0,0.422999133 0,0.940768564 L0,15.0592314 C0,15.5770009 0.408527737,16 0.908583547,16 L13.6354504,16 C14.1355062,16 14.5440339,15.5770009 14.5440339,15.0592314 L14.5440339,11.5665992 L19.2119656,14.3565444 C19.6450497,14.6154291 20,14.4027738 20,13.8850043 L20,2.1126842 C19.9977676,1.59491476 19.6428173,1.38457093 19.2097332,1.64345565 Z M10.056926,8.24501589 L5.83993749,10.9240104 C5.62786025,11.0603872 5.45150128,10.9586825 5.45150128,10.6997977 L5.45150128,5.30020225 C5.45150128,5.04131754 5.62562786,4.93961283 5.83993749,5.0759896 L10.056926,7.75498411 C10.2690032,7.88904941 10.2690032,8.11095059 10.056926,8.24501589 L10.056926,8.24501589 Z" id="形状" fill="#000000" fill-rule="nonzero"></path>
                            </g>
                        </g>
                    </g>
                </g>
            </g>
        </g>
    </g>
</svg>