<?xml version="1.0" encoding="UTF-8"?>
<svg width="17px" height="20px" viewBox="0 0 17 20" version="1.1" xmlns="http://www.w3.org/2000/svg" xmlns:xlink="http://www.w3.org/1999/xlink">
    <title>vioce3@2x</title>
    <g id="客户端" stroke="none" stroke-width="1" fill="none" fill-rule="evenodd">
        <g id="首页-语音视频-通话中" transform="translate(-981.000000, -258.000000)" fill="#0085FF" fill-rule="nonzero">
            <g id="编组-38" transform="translate(949.000000, 235.000000)">
                <path d="M42.7554371,36.9401029 C42.7938798,36.9173541 43.2154242,36.6658538 43.3387067,36.5950817 C43.566713,36.4636448 43.75495,36.3650675 43.943187,36.2841824 C45.2661496,35.7104101 46.4326933,36.1160949 47.975711,37.8348855 C48.9301531,38.8990189 49.2125085,39.8430908 48.843988,40.6835212 C48.569586,41.3116372 48.0406655,41.7451263 47.0994806,42.2809854 C47.0385024,42.3151083 46.4963251,42.6158978 46.3571358,42.6980439 C44.1658962,43.9871371 39.1431529,41.0361251 35.5308357,35.9935007 C31.9092534,30.9382372 30.9720518,25.5480487 33.1924533,24.2400094 L33.485414,24.063075 L33.8035621,23.8659195 C34.9263576,23.1733488 35.6448399,22.8965714 36.4972079,23.0343286 C37.3482532,23.1733484 38.0720371,23.7736604 38.6844708,24.8668634 C39.9756197,27.1796568 39.6906123,28.2766449 38.0296181,29.2737828 C37.9103127,29.3470842 37.4861155,29.5910016 37.4463484,29.6150127 C37.0393856,29.8551377 37.7287039,31.4639759 39.3313723,33.7009386 C40.9539242,35.9631669 42.3100341,37.2004572 42.7541188,36.9400998 L42.7554371,36.9401029 Z" id="vioce3"></path>
            </g>
        </g>
    </g>
</svg>