<?xml version="1.0" encoding="UTF-8"?>
<svg width="24px" height="26px" viewBox="0 0 24 26" version="1.1" xmlns="http://www.w3.org/2000/svg" xmlns:xlink="http://www.w3.org/1999/xlink">
    <title>word</title>
    <g id="客户端" stroke="none" stroke-width="1" fill="none" fill-rule="evenodd">
        <g id="回复2" transform="translate(-736.000000, -484.000000)" fill-rule="nonzero">
            <g id="word" transform="translate(736.000000, 484.000000)">
                <path d="M2.55375437,-2.09933081e-15 C1.39875302,-2.09933081e-15 0.45000192,0.89375104 0.45000192,2.03125236 L0.45000192,23.9281528 C0.45000192,25.0656542 1.39875302,26.0000303 2.55375437,26.0000303 L21.4462764,26.0000303 C22.6012777,26.0000303 23.5500288,25.0656542 23.5500288,23.9281528 L23.5500288,8.2468846 L15.7537697,-2.09933081e-15 L2.55375437,-2.09933081e-15 Z" id="路径" fill="#14A9DA"></path>
                <path d="M23.5500288,8.28750964 L23.5500288,8.69376012 L18.2700227,8.69376012 C18.2700227,8.69376012 15.6712696,8.1656345 15.7125197,5.9312569 C15.7125197,5.9312569 15.8362698,8.28750964 18.2287726,8.28750964 L23.5500288,8.28750964 Z" id="路径" fill="#0F93D0"></path>
                <path d="M15.7537697,0 L15.7537697,5.9312569 C15.7537697,6.58125766 16.2075203,8.28750964 18.2700227,8.28750964 L23.5500288,8.28750964 L15.7537697,0 Z" id="路径" fill="#FFFFFF" opacity="0.5"></path>
                <path d="M6.30750874,21.8969005 L5.0700073,21.8969005 C4.82250701,21.8969005 4.61625677,21.6937752 4.61625677,21.450025 L4.61625677,17.4281453 C4.61625677,17.184395 4.82250701,17.0218948 5.0700073,17.0218948 L6.30750874,17.0218948 C7.87501056,17.0218948 8.86501171,18.078146 8.86501171,19.4593976 C8.86501171,20.8406493 7.87501056,21.8969005 6.30750874,21.8969005 Z M6.30750874,17.5500204 L5.23500749,17.5500204 L5.23500749,21.3281498 L6.30750874,21.3281498 C7.54501018,21.3281498 8.24626099,20.4750238 8.24626099,19.4593976 C8.24626099,18.4031464 7.54501018,17.5500204 6.30750874,17.5500204 L6.30750874,17.5500204 Z M12.2887657,21.9781506 C10.803764,21.9781506 9.81376282,20.8812743 9.81376282,19.4593976 C9.81376282,18.037521 10.803764,16.9406447 12.2887657,16.9406447 C13.7325174,16.9406447 14.7225185,17.9968959 14.7225185,19.4593976 C14.7225185,20.8812743 13.7325174,21.9781506 12.2887657,21.9781506 Z M12.2887657,17.4687703 C11.1750144,17.4687703 10.4737636,18.3218963 10.4737636,19.4593976 C10.4737636,20.596899 11.1750144,21.4093999 12.2887657,21.4093999 C13.3612669,21.4093999 14.1037678,20.596899 14.1037678,19.4593976 C14.1037678,18.3218963 13.3612669,17.4687703 12.2887657,17.4687703 Z M19.8787745,17.6312705 C19.9200246,17.6718956 19.9612746,17.7531457 19.9612746,17.8343958 C19.9612746,17.9968959 19.8375245,18.1187711 19.6725243,18.1187711 C19.5900242,18.1187711 19.5075241,18.078146 19.466274,18.037521 C19.1775237,17.6718956 18.6825231,17.4687703 18.2287726,17.4687703 C17.1562714,17.4687703 16.3312704,18.2812713 16.3312704,19.4593976 C16.3312704,20.596899 17.1562714,21.4093999 18.2287726,21.4093999 C18.6825231,21.4093999 19.1362737,21.2468997 19.466274,20.8812743 C19.5075241,20.8000242 19.5900242,20.7593992 19.6725243,20.7593992 C19.8375245,20.7593992 19.9612746,20.9218993 19.9612746,21.0843995 C19.9612746,21.1656496 19.9200246,21.2062747 19.8787745,21.2875248 C19.5075241,21.6937752 18.9712735,21.9781506 18.2287726,21.9781506 C16.7850209,21.9781506 15.6712696,20.9625244 15.6712696,19.4593976 C15.6712696,17.9562709 16.7850209,16.9406447 18.2287726,16.9406447 C18.9712735,16.9406447 19.5075241,17.22502 19.8787745,17.6312705 Z" id="形状" fill="#FFFFFF"></path>
            </g>
        </g>
    </g>
</svg>