<?xml version="1.0" encoding="UTF-8"?>
<svg width="46px" height="46px" viewBox="0 0 46 46" version="1.1" xmlns="http://www.w3.org/2000/svg" xmlns:xlink="http://www.w3.org/1999/xlink">
    <title>news_icon2</title>
    <defs>
        <linearGradient x1="77.5932252%" y1="8.87326869%" x2="28.2548832%" y2="90.8876269%" id="linearGradient-1">
            <stop stop-color="#AE9AFF" offset="0%"></stop>
            <stop stop-color="#8972FC" offset="100%"></stop>
        </linearGradient>
        <filter id="filter-2">
            <feColorMatrix in="SourceGraphic" type="matrix" values="0 0 0 0 1.000000 0 0 0 0 1.000000 0 0 0 0 1.000000 0 0 0 1.000000 0"></feColorMatrix>
        </filter>
    </defs>
    <g id="浅色模式" stroke="none" stroke-width="1" fill="none" fill-rule="evenodd">
        <g id="通知" transform="translate(-16.000000, -193.000000)">
            <g id="编组-2备份" transform="translate(0.000000, 176.000000)">
                <g id="news_icon2" transform="translate(16.000000, 17.000000)">
                    <rect id="矩形" fill="url(#linearGradient-1)" x="0" y="0" width="46" height="46" rx="23"></rect>
                    <g id="消-息" transform="translate(13.000000, 13.000000)" filter="url(#filter-2)">
                        <g>
                            <path d="M18.1563401,0.239405573 L2.35940721,0.239405573 L2.3594072,0.239405573 C1.32913247,0.231067672 0.48717034,1.05951116 0.478831698,2.08978795 C0.478750191,2.09985934 0.478750247,2.10993124 0.478831864,2.12000267 L0.478831864,14.0805435 L0.478831875,14.0805432 C0.437299517,15.1183379 1.24492964,15.9933029 2.28272232,16.0348356 C2.30827077,16.0358581 2.33383753,16.0363594 2.35940655,16.0363392 L5.59405483,16.0363392 L5.59405483,18.7444231 L5.5940548,18.7444243 C5.58145413,19.3134491 6.03252665,19.7849506 6.6015515,19.7975511 C6.61676078,19.7978037 6.63197562,19.7978037 6.64718489,19.797551 L6.64718498,19.797551 C6.92297927,19.7773252 7.1857452,19.6722042 7.39939049,19.4966277 L10.8596799,16.0363383 L18.0811202,16.0363383 L18.0811202,16.0363383 C19.111395,16.0446875 19.9533674,15.2162533 19.9617163,14.1859765 C19.9617979,14.1759051 19.961798,14.1658332 19.9617165,14.1557618 L19.9617165,2.12000043 L19.9617165,2.11999945 C20.0285758,1.15015416 19.2965608,0.309740875 18.3267175,0.24288159 C18.2700146,0.23897259 18.2131557,0.237812297 18.1563404,0.239404764 L18.1563401,0.239405573 Z M12.5898136,11.3725203 L4.46564437,11.3725203 L4.46564433,11.3725203 C3.92555994,11.3725203 3.48773602,10.9346964 3.48773602,10.394612 C3.48773602,9.85452761 3.92555994,9.41670369 4.46564433,9.41670369 L12.589793,9.41670369 L12.5897931,9.41670369 C13.1298774,9.41670369 13.5677014,9.85452761 13.5677014,10.394612 C13.5677014,10.9346964 13.1298774,11.3725203 12.5897931,11.3725203 L12.5898136,11.3725203 Z M16.0500618,6.85908152 L4.46564437,6.85908152 L4.46564438,6.85908152 C3.94245325,6.87596231 3.50463755,6.46551574 3.48775663,5.94232462 C3.48709913,5.92194635 3.48709934,5.90155228 3.48775728,5.88117403 L3.48775728,5.881174 C3.49582449,5.34447526 3.92894628,4.91134516 4.46564502,4.90326569 L16.0500625,4.90326569 L16.0500625,4.90326569 C16.5867695,4.91133317 17.0199037,5.34446703 17.0279708,5.881174 L17.0279708,5.88117355 C17.0448632,6.40436468 16.6344256,6.84219066 16.1112345,6.85908186 C16.0908491,6.85974005 16.0704479,6.85974005 16.0500625,6.85908189 L16.0500618,6.85908152 Z" id="形状" fill="#5559EB" fill-rule="nonzero"></path>
                        </g>
                    </g>
                </g>
            </g>
        </g>
    </g>
</svg>