<?xml version="1.0" encoding="UTF-8"?>
<svg width="12px" height="7px" viewBox="0 0 12 7" version="1.1" xmlns="http://www.w3.org/2000/svg" xmlns:xlink="http://www.w3.org/1999/xlink">
    <title>-mockplus-</title>
    <defs>
        <filter id="filter-1">
            <feColorMatrix in="SourceGraphic" type="matrix" values="0 0 0 0 0.000000 0 0 0 0 0.521569 0 0 0 0 1.000000 0 0 0 1.000000 0"></feColorMatrix>
        </filter>
    </defs>
    <g id="浅色模式" stroke="none" stroke-width="1" fill="none" fill-rule="evenodd">
        <g id="个人聊天-键盘状态备份" transform="translate(-348.000000, -335.000000)">
            <g id="已读" transform="translate(348.000000, 335.000000)" filter="url(#filter-1)">
                <g fill="#000000" fill-rule="nonzero" id="形状">
                    <path d="M8.41200979,0.822773008 C8.57040997,0.635603559 8.54640994,0.358403237 8.35680972,0.204403057 C8.1672095,0.0480336447 7.88640918,0.07172598 7.730409,0.258895429 L2.98320816,5.84081193 L0.732010227,3.97386054 C0.542410006,3.81749113 0.261609679,3.84118346 0.105609498,4.02835291 C-0.0527906864,4.21552236 -0.0287906585,4.49272268 0.160809562,4.64672286 L2.73600787,6.78377613 L2.75040789,6.79799153 C2.88000804,6.90460704 3.05280824,6.92593014 3.20160841,6.86906854 C3.26880849,6.84300697 3.33120856,6.80036076 3.37920862,6.74349916 C3.38160862,6.74112992 3.38400863,6.73876069 3.38640863,6.73402222 L8.41201213,0.822784576 L8.41200979,0.822773008 Z M11.8416114,0.524249583 C11.6520112,0.367880171 11.3712109,0.391572506 11.2152107,0.578741955 L6.7392055,5.84081193 L6.12000478,5.32905749 C5.93040456,5.17268808 5.64960423,5.19638041 5.49360405,5.38354986 C5.33520386,5.57071931 5.35920389,5.84791963 5.54880411,6.00191981 L6.50880523,6.79561304 C6.66480541,6.92592088 6.88560567,6.93065935 7.04640586,6.82167461 C7.08000589,6.80035151 7.10880593,6.77428994 7.13760596,6.74112067 L11.8968068,1.14262647 C12.052807,0.95782626 12.028807,0.680625937 11.8416067,0.524256525 L11.8416114,0.524249583 Z"></path>
                </g>
            </g>
        </g>
    </g>
</svg>