<?xml version="1.0" encoding="UTF-8"?>
<svg width="28px" height="28px" viewBox="0 0 28 28" version="1.1" xmlns="http://www.w3.org/2000/svg" xmlns:xlink="http://www.w3.org/1999/xlink">
    <title>发送</title>
    <defs>
        <linearGradient x1="3.24650942%" y1="13.1409153%" x2="98.4534677%" y2="93.6980511%" id="linearGradient-1">
            <stop stop-color="#00BBFF" offset="0%"></stop>
            <stop stop-color="#0085FF" offset="100%"></stop>
        </linearGradient>
    </defs>
    <g id="浅色模式" stroke="none" stroke-width="1" fill="none" fill-rule="evenodd">
        <g id="个人聊天-键盘状态备份-3" transform="translate(-331.000000, -718.000000)" fill="url(#linearGradient-1)">
            <g id="发送" transform="translate(331.000000, 718.000000)">
                <path d="M14,0 C21.7373242,0 28,6.26267578 28,14 C28,21.7373242 21.7373242,28 14,28 C6.26267578,28 0,21.7373242 0,14 C0,6.26267578 6.26267578,0 14,0 Z M19.1473242,20.6422344 L21.7295586,9.02376562 C21.9582344,8.00176562 21.3422344,7.59888281 20.6406758,7.85088281 L5.46,13.4322344 C4.424,13.818 4.44267578,14.3717656 5.28576563,14.6222344 L9.16844141,15.7795586 L18.1813242,10.3646758 C18.6013242,10.0955586 18.9902344,10.248 18.6728828,10.5155586 L11.382,16.8015586 L11.102,20.6251172 C11.5064414,20.6251172 11.6822344,20.4571172 11.8922344,20.2548828 L13.79,18.5126758 L17.7255586,21.2784414 C18.445793,21.6626758 18.9544414,21.462 19.1473242,20.6406758 L19.1473242,20.6422344 Z" id="形状"></path>
            </g>
        </g>
    </g>
</svg>