<?xml version="1.0" encoding="UTF-8"?>
<svg width="9px" height="7px" viewBox="0 0 9 7" version="1.1" xmlns="http://www.w3.org/2000/svg" xmlns:xlink="http://www.w3.org/1999/xlink">
    <title>已读</title>
    <defs>
        <filter id="filter-1">
            <feColorMatrix in="SourceGraphic" type="matrix" values="0 0 0 0 0.000000 0 0 0 0 0.521569 0 0 0 0 1.000000 0 0 0 1.000000 0"></feColorMatrix>
        </filter>
    </defs>
    <g id="浅色模式" stroke="none" stroke-width="1" fill="none" fill-rule="evenodd">
        <g id="已读" transform="translate(-348.000000, -544.000000)" filter="url(#filter-1)">
            <g transform="translate(348.000000, 544.000000)" fill="#000000" fill-rule="nonzero" id="形状">
                <path d="M8.41200979,0.822773008 C8.57040997,0.635603559 8.54640994,0.358403237 8.35680972,0.204403057 C8.1672095,0.0480336447 7.88640918,0.07172598 7.730409,0.258895429 L2.98320816,5.84081193 L0.732010227,3.97386054 C0.542410006,3.81749113 0.261609679,3.84118346 0.105609498,4.02835291 C-0.0527906864,4.21552236 -0.0287906585,4.49272268 0.160809562,4.64672286 L2.73600787,6.78377613 L2.75040789,6.79799153 C2.88000804,6.90460704 3.05280824,6.92593014 3.20160841,6.86906854 C3.26880849,6.84300697 3.33120856,6.80036076 3.37920862,6.74349916 C3.38160862,6.74112992 3.38400863,6.73876069 3.38640863,6.73402222 L8.41201213,0.822784576 L8.41200979,0.822773008 Z"></path>
            </g>
        </g>
    </g>
</svg>