<?xml version="1.0" encoding="UTF-8"?>
<svg width="85px" height="131px" viewBox="0 0 85 131" version="1.1" xmlns="http://www.w3.org/2000/svg" xmlns:xlink="http://www.w3.org/1999/xlink">
    <title>编组</title>
    <defs>
        <polygon id="path-1" points="0 0.456477273 84.7673684 0.456477273 84.7673684 36.7047614 0 36.7047614"></polygon>
        <polygon id="path-3" points="0 0.0190568182 19.7779094 0.0190568182 19.7779094 0.511481061 0 0.511481061"></polygon>
        <polygon id="path-5" points="0 0.100306818 19.7781082 0.100306818 19.7781082 0.592731061 0 0.592731061"></polygon>
        <polygon id="path-7" points="0.369625731 0.100306818 20.1474854 0.100306818 20.1474854 0.592731061 0.369625731 0.592731061"></polygon>
        <polygon id="path-9" points="0.369377193 0.0190568182 20.1474854 0.0190568182 20.1474854 0.511481061 0.369377193 0.511481061"></polygon>
        <linearGradient x1="77.2765886%" y1="11.8778313%" x2="31.1400446%" y2="90.8446125%" id="linearGradient-11">
            <stop stop-color="#00BBFF" offset="0%"></stop>
            <stop stop-color="#0085FF" offset="100%"></stop>
        </linearGradient>
    </defs>
    <g id="浅色模式" stroke="none" stroke-width="1" fill="none" fill-rule="evenodd">
        <g id="启动页" transform="translate(-145.000000, -208.000000)">
            <g id="编组" transform="translate(145.000000, 208.000000)">
                <path d="M19.0084854,121.845144 L19.0084854,128.798667 C19.0084854,129.762341 18.2201228,130.543326 17.247345,130.543326 C16.2745673,130.543326 15.4857076,129.762341 15.4857076,128.798667 L15.4857076,121.897833 L9.51781287,111.498818 C8.87012281,110.370182 9.69278363,108.969235 11.0035731,108.969235 C11.6418187,108.969235 12.2268772,109.321318 12.5206491,109.882682 L17.3273743,119.068856 L22.1534854,109.844765 C22.4348304,109.306545 22.9955322,108.969235 23.6074327,108.969235 C24.864538,108.969235 25.6529006,110.314045 25.0295673,111.395902 L19.0084854,121.845144 Z" id="Fill-1" fill="#000000"></path>
                <path d="M32.5664327,116.539076 L32.5664327,128.79847 C32.5664327,129.762636 31.7780702,130.543129 30.8052924,130.543129 C29.8325146,130.543129 29.043655,129.762636 29.043655,128.79847 L29.043655,116.539076 C29.043655,115.575402 29.8325146,114.793924 30.8052924,114.793924 C31.7780702,114.793924 32.5664327,115.575402 32.5664327,116.539076" id="Fill-3" fill="#000000"></path>
                <path d="M57.2804561,130.543326 L57.2804561,130.543326 C56.3076784,130.543326 55.5193158,129.762341 55.5193158,128.798174 L55.5193158,113.675333 L50.2522982,128.806545 C49.8904269,129.846053 48.9027368,130.543326 47.7927661,130.543326 C46.6822982,130.543326 45.6946082,129.846053 45.3327368,128.806545 L40.0925614,113.754121 L40.0925614,128.970523 C40.0925614,129.839159 39.3817427,130.543326 38.5049006,130.543326 C37.6275614,130.543326 36.9167427,129.839159 36.9167427,128.970523 L36.9167427,111.642606 C36.9167427,110.165826 38.1251345,108.968742 39.6158655,108.968742 C40.9226784,108.968742 42.0848421,109.792076 42.5073567,111.017227 L47.9125614,126.683212 L53.3177661,111.017227 C53.7402807,109.792076 54.9024444,108.968742 56.2092573,108.968742 L56.3429708,108.968742 C57.8337018,108.968742 59.0420936,110.165826 59.0420936,111.642606 L59.0420936,128.798174 C59.0420936,129.762341 58.253731,130.543326 57.2804561,130.543326" id="Fill-5" fill="#000000"></path>
                <path d="M65.9474737,111.93028 L65.9474737,117.747288 L73.3802515,117.747288 C74.1984386,117.747288 74.861538,118.403689 74.861538,119.21422 L74.861538,119.240811 C74.861538,120.050848 74.1984386,120.708235 73.3802515,120.708235 L65.9474737,120.708235 L65.9474737,127.609068 L73.9941404,127.609068 C74.8123275,127.609068 75.4754269,128.265962 75.4754269,129.076 C75.4754269,129.88653 74.8123275,130.543424 73.9941404,130.543424 L64.3324737,130.543424 C63.2935848,130.543424 62.4510409,129.708765 62.4510409,128.680091 L62.4510409,110.832667 C62.4510409,109.8035 63.2935848,108.968841 64.3324737,108.968841 L73.9941404,108.968841 C74.8123275,108.968841 75.4754269,109.625735 75.4754269,110.436265 L75.4754269,110.462856 C75.4754269,111.272894 74.8123275,111.93028 73.9941404,111.93028 L65.9474737,111.93028 Z" id="Fill-7" fill="#000000"></path>
                <path d="M32.5664327,110.71414 C32.5664327,109.750466 31.7780702,108.968989 30.8052924,108.968989 C29.8325146,108.968989 29.043655,109.750466 29.043655,110.71414 C29.043655,111.677814 29.8325146,112.458799 30.8052924,112.458799 C31.7780702,112.458799 32.5664327,111.677814 32.5664327,110.71414" id="Fill-9" fill="#000000"></path>
                <g transform="translate(0.000000, 1.035947)">
                    <mask id="mask-2" fill="white">
                        <use xlink:href="#path-1"></use>
                    </mask>
                    <g id="Clip-12"></g>
                </g>
                <g transform="translate(0.000000, 37.475341)">
                    <mask id="mask-4" fill="white">
                        <use xlink:href="#path-3"></use>
                    </mask>
                    <g id="Clip-14"></g>
                    <line x1="19.7779094" y1="0.265268939" x2="-0.000248538012" y2="0.265268939" id="Fill-13" fill="#000000" mask="url(#mask-4)"></line>
                </g>
                <g transform="translate(0.000000, 49.785947)">
                    <mask id="mask-6" fill="white">
                        <use xlink:href="#path-5"></use>
                    </mask>
                    <g id="Clip-16"></g>
                    <line x1="-4.97076023e-05" y1="0.346518939" x2="19.7781082" y2="0.346518939" id="Fill-15" fill="#000000" mask="url(#mask-6)"></line>
                </g>
                <g transform="translate(64.619883, 49.785947)">
                    <mask id="mask-8" fill="white">
                        <use xlink:href="#path-7"></use>
                    </mask>
                    <g id="Clip-18"></g>
                    <line x1="0.369625731" y1="0.346518939" x2="20.1477836" y2="0.346518939" id="Fill-17" fill="#000000" mask="url(#mask-8)"></line>
                </g>
                <g transform="translate(64.619883, 37.475341)">
                    <mask id="mask-10" fill="white">
                        <use xlink:href="#path-9"></use>
                    </mask>
                    <g id="Clip-20"></g>
                    <line x1="20.1475351" y1="0.265268939" x2="0.369377193" y2="0.265268939" id="Fill-19" fill="#000000" mask="url(#mask-10)"></line>
                </g>
                <g transform="translate(0.000000, 0.785947)" fill="url(#linearGradient-11)" id="Fill-22">
                    <path d="M19.7777105,49.3465189 C22.5225643,59.1615189 31.6140848,66.3898144 42.3837339,66.3898144 C53.152886,66.3898144 62.2444064,59.1615189 64.9892602,49.3465189 L64.9892602,49.3465189 L84.7674181,49.3465189 C83.2602836,59.508678 78.1026228,68.5087159 70.6643772,75.0003447 L70.6643772,75.0003447 C68.7321284,76.9627045 63.2310691,81.3432784 57.5891027,85.6994019 L56.8012815,86.3068287 L56.8012815,86.3068287 L56.0136982,86.9124637 C52.6043377,89.5308703 49.2598906,92.0572805 46.737148,93.9518222 L45.8978731,94.5815584 C43.7535259,96.1891322 42.3837339,97.2052311 42.3837339,97.2052311 L42.3837339,97.2052311 L42.3837339,85.5943598 C20.8832076,85.5943598 3.03718421,69.8229962 4.97076026e-05,49.3465189 L4.97076026e-05,49.3465189 Z M42.3836842,0.70642803 C63.8837135,0.70642803 81.7302339,16.4777917 84.7673684,36.9547614 L84.7673684,36.9547614 L64.9897076,36.9547614 C62.2448538,27.1397614 53.1533333,19.9109735 42.3836842,19.9109735 C31.6140351,19.9109735 22.5225146,27.1397614 19.7776608,36.9547614 L19.7776608,36.9547614 L0,36.9547614 C3.0371345,16.4777917 20.883655,0.70642803 42.3836842,0.70642803 Z"></path>
                </g>
            </g>
        </g>
    </g>
</svg>